PathFileType	4	(X/Y/Z)	C:\Github\BTS_project\Data\sports2d_results\test6 Exam_2026-03-06_143334_tvc4_Sports2D\test6 Exam_2026-03-06_143334_tvc4_Sports2D_px_person00.trc
DataRate	CameraRate	NumFrames	NumMarkers	Units	OrigDataRate	OrigDataStartFrame	OrigNumFrames
30.0	30.0	6	22	m	30.0	137	220
Frame#	Time	Hip			RHip			RKnee			RAnkle			RBigToe			RSmallToe			RHeel			LHip			LKnee			LAnkle			LBigToe			LSmallToe			LHeel			Neck			Head			Nose			RShoulder			RElbow			RWrist			LShoulder			LElbow			LWrist			
		X1	Y1	Z1	X2	Y2	Z2	X3	Y3	Z3	X4	Y4	Z4	X5	Y5	Z5	X6	Y6	Z6	X7	Y7	Z7	X8	Y8	Z8	X9	Y9	Z9	X10	Y10	Z10	X11	Y11	Z11	X12	Y12	Z12	X13	Y13	Z13	X14	Y14	Z14	X15	Y15	Z15	X16	Y16	Z16	X17	Y17	Z17	X18	Y18	Z18	X19	Y19	Z19	X20	Y20	Z20	X21	Y21	Z21	X22	Y22	Z22
137	4.58751902587519	151.0945057924951	721.7934260620447	0.0	125.7101695079976	724.9028230826193	0.0	112.28391751151307	809.0781950418693	0.0	104.0283478431683	890.5054327141547	0.0	111.8589094722804	916.2113397067385	0.0	96.53440824548285	916.9696866370787	0.0	101.4532590449304	902.0612191120786	0.0	174.94047991196192	727.7470803899546	0.0	181.99622791366704	806.6898680318424	0.0	185.9341756380342	883.2448316025184	0.0	206.25946840025227	904.1087133317628	0.0	208.53746771559696	901.9680734115225	0.0	178.36449022940553	897.5440663716391	0.0	153.39388239107552	596.9949845270719	0.0	153.03787080047707	540.1274228697747	0.0	162.76873863891743	570.3298805268698	0.0	110.66755648931867	613.9556117099804	0.0	91.33819783752278	668.1964062021699	0.0	132.88125927712338	663.2166904431331	0.0	192.53978292268692	618.266343484896	0.0	213.25553501944793	673.1143061560583	0.0	190.52302725283195	661.5296320103221	0.0
138	4.621004566210045	151.84985926454706	721.8928054853372	0.0	125.81721116738515	725.1827487344378	0.0	112.15909405077296	809.1991922624115	0.0	103.93616264813537	890.1810798787876	0.0	111.57905659310563	916.7498330965245	0.0	96.55908676975004	917.1639887133177	0.0	101.3161129056652	902.0951869869618	0.0	176.19878092630847	728.3262810940811	0.0	182.17840608102662	807.2465923050437	0.0	186.06268975009348	883.321806520486	0.0	205.27651288310219	904.1018130341732	0.0	208.31448545658523	902.3970950959991	0.0	178.4975282242366	897.3743184083656	0.0	153.34927277378372	596.929135377199	0.0	153.3524306537476	540.0030352026415	0.0	162.96444390862945	570.3541155205396	0.0	110.72423168309349	614.0288931283707	0.0	91.37444167108094	668.0421126348937	0.0	133.25837635263048	663.2283047719644	0.0	192.59897636087794	617.8895149167635	0.0	212.70038232280328	673.271601489978	0.0	190.47519290235903	661.6491832619886	0.0
139	4.654490106544901	152.22410478434495	721.9969616624278	0.0	125.56722196443462	725.8598369805393	0.0	111.88363787310338	809.3104576308991	0.0	103.6883259379461	889.8744292181601	0.0	111.0937744363816	917.1930240980257	0.0	96.08341165103334	917.254057593067	0.0	101.06496832224616	901.7429357598484	0.0	176.87817997756153	729.1582462227921	0.0	182.0397068441116	807.5437591577328	0.0	186.22464687657032	883.1302970266612	0.0	203.36651341216825	903.9923292488302	0.0	208.16258937905343	902.4513081167895	0.0	178.9503668267361	897.0032750175644	0.0	153.26868922963814	596.875193760627	0.0	153.58636903354952	539.4343468083803	0.0	163.05708642705477	570.3487087085947	0.0	110.74402243539595	614.0914868560508	0.0	91.35813303198064	667.9750919396804	0.0	133.6110965994261	663.342084286305	0.0	192.6704706699664	617.7057799728158	0.0	212.45100745797833	673.5551751492428	0.0	190.49675705091016	661.7318262776171	0.0
140	4.687975646879757	152.25259246258875	722.015917270633	0.0	125.1403253869665	726.2910470679597	0.0	111.76034268852668	809.5266308210182	0.0	103.57665532685095	889.9385049849373	0.0	110.77264325838037	917.2680697840401	0.0	95.66583568683804	917.2114602713006	0.0	100.68656767320319	901.5525320979916	0.0	177.0866865766041	729.4699466948384	0.0	181.7512208724207	807.605567532157	0.0	186.1291805947361	883.0357351610425	0.0	201.77043472036007	904.0122195544084	0.0	207.93333184712785	902.2748340694285	0.0	179.43051156409325	896.7421148513123	0.0	153.21117000024032	596.8468488789923	0.0	153.75525911958803	538.8776350820016	0.0	162.98089838656682	570.2954752321781	0.0	110.6660391781362	614.1231690298504	0.0	91.38411888635912	668.1140254761938	0.0	133.8630279597962	663.4060715153317	0.0	192.59692772428002	617.7174303836716	0.0	212.3910420540292	673.6459260459501	0.0	191.0028778340597	661.5992758277143	0.0
141	4.7214611872146115	152.14649699530412	721.9875585941415	0.0	124.90129492230788	726.4568796044082	0.0	111.9763810287652	809.7938305646011	0.0	103.75972528146289	890.3786261821989	0.0	110.87479632555554	917.1204956699048	0.0	95.76705981681312	917.0928878104855	0.0	100.19255592197005	901.8402614504236	0.0	177.23132854038647	729.3736991734156	0.0	181.54017876880067	807.625804217664	0.0	185.8619454296616	883.1355604160574	0.0	201.27496139228583	904.0763272723785	0.0	207.37826156660623	901.9568367746061	0.0	179.46516849515717	896.6516915534645	0.0	153.22499481589506	596.8158134061555	0.0	153.83375848836545	538.7267520489595	0.0	162.97037773825946	570.2195291204458	0.0	110.61653663821153	614.1637423487202	0.0	91.52189730390934	668.4933680137409	0.0	133.93509327839533	663.4304527940557	0.0	192.32883586041024	617.7163278933323	0.0	211.64253772571328	673.7009529267402	0.0	192.14072090535498	661.3566870462519	0.0
142	4.754946727549467	151.98410720252554	721.8705280176653	0.0	125.07319312394935	726.5552878093814	0.0	112.45455771723996	809.8394990773538	0.0	103.87590370082793	890.5951126426976	0.0	111.20309048457872	917.0228269955498	0.0	96.13042865216177	917.0237582649436	0.0	99.8034540878988	902.0982445181083	0.0	177.31042950866507	729.4187995726585	0.0	181.53333851024183	807.5643809509562	0.0	185.66667762773977	883.1847979372344	0.0	201.84805438622413	904.0066202885067	0.0	207.04291581820965	901.635598731688	0.0	178.70951356458315	896.6921269155423	0.0	153.2930723122498	596.8195284097659	0.0	153.64664479121535	538.8258584287997	0.0	163.09943022288087	570.123194050219	0.0	110.79254584981112	614.3418276189453	0.0	91.69661875547412	668.8055966796305	0.0	133.9957951725491	663.4120878856579	0.0	192.08106462576413	617.6772981999367	0.0	210.29129500978823	673.7283249761913	0.0	193.16669807320375	661.1460703747862	0.0
